<svg xmlns="http://www.w3.org/2000/svg" width="330" height="140" viewBox="52 41 300 130" role="img" aria-label="Aero logo">
  <defs>
    <linearGradient id="g1" x1="0" y1="0" x2="1" y2="1">
      <stop offset="0" stop-color="#4F46E5"/>
      <stop offset="1" stop-color="#60A5FA"/>
    </linearGradient>
    <linearGradient id="g2" x1="1" y1="0" x2="0" y2="1">
      <stop offset="0" stop-color="#4338CA"/>
      <stop offset="1" stop-color="#93C5FD"/>
    </linearGradient>
    <filter id="soft" x="-30%" y="-30%" width="160%" height="160%">
      <feGaussianBlur in="SourceAlpha" stdDeviation="2"/>
      <feOffset dx="0" dy="2" result="o"/>
      <feColorMatrix in="o" type="matrix" values="0 0 0 0 0   0 0 0 0 0   0 0 0 0 0   0 0 0 .22 0"/>
      <feMerge>
        <feMergeNode/>
        <feMergeNode in="SourceGraphic"/>
      </feMerge>
    </filter>
  </defs>

  <g transform="translate(28,24)">
    <g filter="url(#soft)">
      <path d="M86 20C60 21 36 38 28 64c-8 26 1 54 23 70 20 14 47 14 68 0 8-6 13-12 18-22-18 10-38 11-55 1-20-12-27-39-16-60 8-17 26-28 46-29-9-3-18-4-26-4z" fill="url(#g1)"/>
      <path d="M36 84c18-16 41-25 68-26-11 7-19 18-21 31-2 15 5 30 18 38-23 1-46-9-65-28z" fill="url(#g2)" opacity="0.95"/>
      <path d="M78 44c8 3 13 11 12 20-1 9-8 16-17 17 5-7 6-16 1-23-2-6-7-11-14-14 6-2 12-2 18 0z" fill="#FFF7ED" opacity="0.95"/>
    </g>

    <text x="115" y="100"
      font-family="Outfit, ui-sans-serif, system-ui, -apple-system, Segoe UI, Roboto, Helvetica, Arial"
      font-size="100" font-weight="700" letter-spacing="-1"
      fill="#0F172A">Aero</text>
  </g>
</svg>